<?xml version="1.0" encoding="UTF-8"?><svg id="Calque_1" xmlns="http://www.w3.org/2000/svg" viewBox="0 0 494.69 377.06"><defs><style>.cls-1{fill:#fff;}</style></defs><path class="cls-1" d="M418.76,31.26C387.23,16.79,353.42,6.13,318.07,.03c-.65-.12-1.29,.18-1.62,.77-4.34,7.73-9.16,17.82-12.54,25.75-38.02-5.69-75.85-5.69-113.09,0-3.38-8.11-8.36-18.02-12.73-25.75-.33-.57-.98-.86-1.62-.77-35.33,6.09-69.14,16.74-100.69,31.23-.27,.12-.5,.31-.66,.57C10.99,127.64-6.58,221.1,2.04,313.39c.05,.45,.29,.88,.65,1.16,42.31,31.07,83.3,49.94,123.52,62.44,.64,.2,1.32-.04,1.73-.57,9.51-12.99,18-26.7,25.28-41.1,.43-.84,.02-1.85-.86-2.18-13.46-5.1-26.26-11.33-38.59-18.39-.97-.57-1.05-1.96-.15-2.63,2.6-1.94,5.19-3.97,7.67-6.01,.45-.37,1.07-.45,1.59-.22,80.96,36.96,168.61,36.96,248.61,0,.53-.26,1.15-.18,1.62,.2,2.47,2.04,5.07,4.08,7.68,6.03,.9,.67,.83,2.06-.14,2.63-12.32,7.2-25.14,13.29-38.61,18.37-.87,.33-1.27,1.35-.83,2.2,7.43,14.39,15.91,28.09,25.24,41.08,.39,.55,1.1,.79,1.74,.59,40.42-12.5,81.41-31.37,123.72-62.44,.37-.28,.6-.69,.64-1.14,10.32-106.71-17.28-199.4-73.14-281.56-.14-.27-.37-.47-.64-.59h0Zm-253.46,225.93c-24.38,0-44.46-22.38-44.46-49.86s19.69-49.86,44.46-49.86,44.85,22.57,44.45,49.86c0,27.48-19.69,49.86-44.45,49.86Zm164.37,0c-24.38,0-44.46-22.38-44.46-49.86s19.69-49.86,44.46-49.86,44.85,22.57,44.45,49.86c0,27.48-19.49,49.86-44.45,49.86Z"/></svg>