<?xml version="1.0" encoding="UTF-8"?><svg id="Calque_1" xmlns="http://www.w3.org/2000/svg" viewBox="0 0 614.01 349.35"><defs><style>.cls-1{fill:#fff;}</style></defs><path class="cls-1" d="M346.34,174.68c0,96.47-77.53,174.67-173.17,174.67S0,271.13,0,174.68,77.53,0,173.17,0s173.17,78.21,173.17,174.68h0Z"/><path class="cls-1" d="M536.31,174.68c0,90.81-38.77,164.45-86.59,164.45s-86.59-73.64-86.59-164.45S401.89,10.23,449.71,10.23s86.59,73.62,86.59,164.45"/><path class="cls-1" d="M614.01,174.68c0,81.34-13.63,147.32-30.45,147.32s-30.45-65.96-30.45-147.32,13.63-147.32,30.45-147.32,30.45,65.96,30.45,147.32Z"/></svg>