<?xml version="1.0" encoding="UTF-8"?><svg id="Calque_1" xmlns="http://www.w3.org/2000/svg" xmlns:xlink="http://www.w3.org/1999/xlink" viewBox="0 0 443.59 443.59"><defs><style>.cls-1{fill:#fff;}.cls-2{clip-path:url(#clippath);}.cls-3{fill:none;}</style><clipPath id="clippath"><rect class="cls-3" width="443.59" height="443.59"/></clipPath></defs><g class="cls-2"><path class="cls-1" d="M139.55,402c167.35,0,258.91-138.68,258.91-258.91,0-3.9-.09-7.88-.26-11.78,17.81-12.88,33.18-28.84,45.39-47.11-16.59,7.38-34.2,12.2-52.23,14.3,18.99-11.38,33.21-29.26,40.02-50.33-17.86,10.59-37.4,18.06-57.77,22.08-13.73-14.58-31.87-24.24-51.64-27.48-19.76-3.24-40.04,.13-57.7,9.58s-31.72,24.45-40,42.68c-8.28,18.24-10.32,38.69-5.81,58.2-36.17-1.82-71.56-11.21-103.87-27.58S53.78,86.31,30.92,58.21c-11.62,20.03-15.17,43.73-9.94,66.29s18.85,42.28,38.1,55.15c-14.45-.46-28.58-4.35-41.23-11.35v1.13c0,21.02,7.25,41.4,20.57,57.66,13.31,16.27,31.85,27.43,52.45,31.57-13.39,3.66-27.43,4.2-41.06,1.56,5.81,18.08,17.13,33.89,32.36,45.23,15.23,11.34,33.63,17.64,52.61,18.02-32.23,25.32-72.05,39.05-113.04,38.99-7.27-.01-14.53-.46-21.75-1.33,41.64,26.71,90.08,40.9,139.55,40.88h0Z"/></g></svg>