<?xml version="1.0" encoding="UTF-8"?><svg id="Calque_1" xmlns="http://www.w3.org/2000/svg" xmlns:xlink="http://www.w3.org/1999/xlink" viewBox="0 0 378.09 312.63"><defs><style>.cls-1{fill:url(#Dégradé_sans_nom_2);}.cls-2{fill:url(#Dégradé_sans_nom_2-2);fill-rule:evenodd;}</style><radialGradient id="Dégradé_sans_nom_2" cx="-369.99" cy="714.77" fx="-369.99" fy="714.77" r="16.39" gradientTransform="translate(-26913.32 -9868.35) rotate(133.02) scale(30.78 -37.22)" gradientUnits="userSpaceOnUse"><stop offset=".16" stop-color="#ff1988"/><stop offset=".5" stop-color="#018afd"/><stop offset=".86" stop-color="#01fcc0"/></radialGradient><radialGradient id="Dégradé_sans_nom_2-2" cx="-369.99" cy="714.77" fx="-369.99" fy="714.77" r="16.39" xlink:href="#Dégradé_sans_nom_2"/></defs><path class="cls-1" d="M247.56,156.32c0-15.28,12.38-27.66,27.66-27.66s27.66,12.38,27.66,27.66-12.38,27.66-27.66,27.66-27.66-12.38-27.66-27.66Z"/><path class="cls-2" d="M338.68,58.11c-12.13-28.5-38.93-48.99-70.82-52.35l-12.02-1.26C195.12-1.89,133.89-1.47,73.27,5.75l-7.96,.95C34.54,10.37,10.16,34.41,6.06,65.13c-8.08,60.52-8.08,121.86,0,182.38,4.1,30.72,28.48,54.76,59.25,58.43l7.96,.95c60.62,7.22,121.85,7.64,182.56,1.26l12.02-1.27c31.89-3.36,58.69-23.85,70.82-52.35,19.16-5.71,33.79-22.32,36.19-42.85,4.3-36.78,4.3-73.94,0-110.73-2.4-20.53-17.03-37.14-36.19-42.85Zm-85.74-26.1c-58.66-6.17-117.82-5.77-176.39,1.21l-7.96,.95c-18.23,2.17-32.68,16.42-35.11,34.62-7.75,58.1-7.75,116.97,0,175.06,2.43,18.2,16.88,32.45,35.11,34.62l7.96,.95c58.57,6.98,117.73,7.39,176.39,1.21l12.02-1.26c15.68-1.65,29.56-9.38,39.18-20.86-27.81,1.62-55.99,.9-83.47-2.17-23.41-2.62-42.34-21.05-45.1-44.66-4.3-36.78-4.3-73.94,0-110.73,2.76-23.61,21.69-42.04,45.1-44.65,27.48-3.07,55.66-3.8,83.47-2.17-9.62-11.48-23.49-19.21-39.18-20.86l-12.02-1.26Zm64.27,50.83c.01,.07,.02,.14,.03,.21l.11,.72,3.66-.57c1.9,.19,3.79,.39,5.68,.6,10.83,1.21,19.46,9.77,20.7,20.38,4.05,34.65,4.05,69.65,0,104.3-1.24,10.61-9.87,19.17-20.7,20.38-1.89,.21-3.78,.41-5.68,.6l-3.66-.57-.11,.72c-.01,.07-.02,.14-.03,.21-30.95,2.8-62.7,2.48-93.47-.96-10.83-1.21-19.46-9.77-20.7-20.38-4.05-34.65-4.05-69.65,0-104.3,1.24-10.61,9.87-19.17,20.7-20.38,30.77-3.44,62.52-3.76,93.47-.96Z"/></svg>